<svg width="520" height="520" viewBox="0 0 520 520" fill="none" xmlns="http://www.w3.org/2000/svg">
<g filter="url(#filter0_d_302_15)">
<rect x="4" width="512" height="512" fill="#333333"/>
<path d="M153.297 409.545C151.88 407.141 150.534 404.667 149.259 402.121C147.984 399.576 146.851 397.03 145.859 394.485C127.585 346.404 109.381 298.747 91.2485 251.515C73.1156 204.283 54.912 156.626 36.6375 108.545C36.6375 107.838 36.5312 107.202 36.3187 106.636C36.1062 106.071 36 105.505 36 104.939C36 100.98 38.6208 99 43.8623 99H112.285C117.669 99 121.352 101.687 123.335 107.061L188.358 300.303L248.494 107.061C250.477 101.687 254.373 99 260.181 99H329.242C332.5 99 334.802 99.601 336.148 100.803C337.494 102.005 338.167 103.596 338.167 105.576C338.167 106.707 338.096 107.485 337.954 107.909V108.545L300.13 216.727L328.604 300.091L397.452 107.061C399.436 101.687 403.331 99 409.14 99H476.075C479.333 99 481.636 99.601 482.981 100.803C484.327 102.005 485 103.596 485 105.576C485 106.707 484.929 107.485 484.787 107.909V108.545C475.154 133.434 465.309 158.253 455.251 183C445.193 207.747 435.099 232.495 424.97 257.242C414.842 281.99 404.783 306.773 394.796 331.591C384.809 356.409 375.07 381.192 365.578 405.939C365.012 407.495 363.737 409.227 361.753 411.136C359.77 413.045 357.362 414 354.529 414H353.891H302.468C299.351 414 296.978 413.399 295.349 412.197C293.72 410.995 292.551 409.404 291.843 407.424L258.269 319.182C253.452 332.051 248.707 344.672 244.032 357.045C239.357 369.419 234.682 382.04 230.007 394.909C229.299 396.889 228.484 398.975 227.563 401.167C226.643 403.359 225.545 405.409 224.27 407.318C222.995 409.227 221.543 410.818 219.914 412.091C218.285 413.364 216.407 414 214.283 414H213.645H162.221C157.688 414 154.713 412.515 153.297 409.545Z" fill="#F6F6F6"/>
</g>
<defs>
<filter id="filter0_d_302_15" x="0" y="0" width="520" height="520" filterUnits="userSpaceOnUse" color-interpolation-filters="sRGB">
<feFlood flood-opacity="0" result="BackgroundImageFix"/>
<feColorMatrix in="SourceAlpha" type="matrix" values="0 0 0 0 0 0 0 0 0 0 0 0 0 0 0 0 0 0 127 0" result="hardAlpha"/>
<feOffset dy="4"/>
<feGaussianBlur stdDeviation="2"/>
<feComposite in2="hardAlpha" operator="out"/>
<feColorMatrix type="matrix" values="0 0 0 0 0 0 0 0 0 0 0 0 0 0 0 0 0 0 0.25 0"/>
<feBlend mode="normal" in2="BackgroundImageFix" result="effect1_dropShadow_302_15"/>
<feBlend mode="normal" in="SourceGraphic" in2="effect1_dropShadow_302_15" result="shape"/>
</filter>
</defs>
</svg>
